<svg width="55" height="55" viewBox="0 0 55 55" fill="none" xmlns="http://www.w3.org/2000/svg">
<g clip-path="url(#clip0_161_2193)">
<path d="M11.7852 20.35V36.6143" stroke="#4E243D" stroke-width="3.71" stroke-linecap="round" stroke-linejoin="round"/>
<path d="M27.499 20.35V36.6143" stroke="#4E243D" stroke-width="3.71" stroke-linecap="round" stroke-linejoin="round"/>
<path d="M19.6426 23.8464V33.1179" stroke="#4E243D" stroke-width="3.71" stroke-linecap="round" stroke-linejoin="round"/>
<path d="M43.2139 20.35V36.6143" stroke="#4E243D" stroke-width="3.71" stroke-linecap="round" stroke-linejoin="round"/>
<path d="M35.3564 23.8464V33.1179" stroke="#4E243D" stroke-width="3.71" stroke-linecap="round" stroke-linejoin="round"/>
<path d="M1.96387 15.7142V5.8928C1.96387 4.85088 2.37777 3.85164 3.11452 3.11489C3.85127 2.37814 4.85052 1.96423 5.89244 1.96423H15.7139" stroke="#4E243D" stroke-width="3.71" stroke-linecap="round" stroke-linejoin="round"/>
<path d="M53.0352 15.7142V5.8928C53.0352 4.85088 52.6213 3.85164 51.8845 3.11489C51.1478 2.37814 50.1485 1.96423 49.1066 1.96423H39.2852" stroke="#4E243D" stroke-width="3.71" stroke-linecap="round" stroke-linejoin="round"/>
<path d="M1.96387 39.2856V49.1071C1.96387 50.149 2.37777 51.1482 3.11452 51.885C3.85127 52.6217 4.85052 53.0356 5.89244 53.0356H15.7139" stroke="#4E243D" stroke-width="3.71" stroke-linecap="round" stroke-linejoin="round"/>
<path d="M53.0352 39.2856V49.1071C53.0352 50.149 52.6213 51.1482 51.8845 51.885C51.1478 52.6217 50.1485 53.0356 49.1066 53.0356H39.2852" stroke="#4E243D" stroke-width="3.71" stroke-linecap="round" stroke-linejoin="round"/>
</g>
<defs>
<clipPath id="clip0_161_2193">
<rect width="55" height="55" fill="white"/>
</clipPath>
</defs>
</svg>
