<svg width="100" height="100" viewBox="0 0 100 100" fill="none" xmlns="http://www.w3.org/2000/svg">
<g clip-path="url(#clip0_288_2313)">
<path d="M85.3553 14.6447C80.7156 9.98712 75.2029 6.29022 69.1328 3.76561C63.0627 1.24099 56.5542 -0.0617588 49.9801 -0.068092C43.4059 -0.0744253 36.8949 1.21579 30.82 3.7287C24.745 6.24161 19.2252 9.92789 14.5765 14.5765C9.92789 19.2252 6.24161 24.745 3.7287 30.82C1.21579 36.8949 -0.0744253 43.4059 -0.068092 49.9801C-0.0617588 56.5542 1.24099 63.0627 3.76561 69.1328C6.29022 75.2029 9.98712 80.7156 14.6447 85.3553C19.2844 90.0129 24.7971 93.7098 30.8672 96.2344C36.9373 98.759 43.4458 100.062 50.02 100.068C56.5941 100.074 63.1051 98.7842 69.18 96.2713C75.255 93.7584 80.7748 90.0721 85.4235 85.4235C90.0721 80.7748 93.7584 75.255 96.2713 69.18C98.7842 63.1051 100.074 56.5941 100.068 50.02C100.062 43.4458 98.759 36.9373 96.2344 30.8672C93.7098 24.7971 90.0129 19.2844 85.3553 14.6447ZM23.4836 23.4834C29.7514 17.218 38.0348 13.3737 46.866 12.6317C55.6972 11.8898 64.5059 14.2981 71.7313 19.4299L19.4346 71.7268C9.02012 57.0916 10.368 36.5992 23.4836 23.4834ZM76.5164 76.5166C70.2486 82.782 61.9652 86.6263 53.134 87.3683C44.3028 88.1103 35.4941 85.702 28.2688 80.5703L80.5664 28.2732C90.9799 42.9084 89.632 63.4008 76.5164 76.5166Z" fill="black"/>
</g>
<defs>
<clipPath id="clip0_288_2313">
<rect width="100" height="100" fill="white"/>
</clipPath>
</defs>
</svg>
