<svg width="680" height="438" viewBox="0 0 680 438" fill="none" xmlns="http://www.w3.org/2000/svg">
<mask id="mask0_161_177" style="mask-type:alpha" maskUnits="userSpaceOnUse" x="0" y="0" width="680" height="438">
<path d="M0 9.99999C0 4.47714 4.47715 0 10 0H670C675.523 0 680 4.47715 680 10V428C680 433.523 675.523 438 670 438H10C4.47716 438 0 433.523 0 428V9.99999Z" fill="#F50066"/>
</mask>
<g mask="url(#mask0_161_177)">
<path d="M0 9.99999C0 4.47714 4.47715 0 10 0H670C675.523 0 680 4.47715 680 10V428C680 433.523 675.523 438 670 438H10C4.47716 438 0 433.523 0 428V9.99999Z" fill="#F0F0F0"/>
<g filter="url(#filter0_f_161_177)">
<circle cx="504.5" cy="443.5" r="143.5" fill="#F4ABD0"/>
</g>
<g filter="url(#filter1_f_161_177)">
<circle cx="58.5" cy="23.5" r="83.5" fill="#F4ABD0"/>
</g>
</g>
<defs>
<filter id="filter0_f_161_177" x="170" y="109" width="669" height="669" filterUnits="userSpaceOnUse" color-interpolation-filters="sRGB">
<feFlood flood-opacity="0" result="BackgroundImageFix"/>
<feBlend mode="normal" in="SourceGraphic" in2="BackgroundImageFix" result="shape"/>
<feGaussianBlur stdDeviation="95.5" result="effect1_foregroundBlur_161_177"/>
</filter>
<filter id="filter1_f_161_177" x="-145" y="-180" width="407" height="407" filterUnits="userSpaceOnUse" color-interpolation-filters="sRGB">
<feFlood flood-opacity="0" result="BackgroundImageFix"/>
<feBlend mode="normal" in="SourceGraphic" in2="BackgroundImageFix" result="shape"/>
<feGaussianBlur stdDeviation="60" result="effect1_foregroundBlur_161_177"/>
</filter>
</defs>
</svg>
