<svg width="17" height="17" viewBox="0 0 17 17" fill="none" xmlns="http://www.w3.org/2000/svg">
<g clip-path="url(#clip0_161_869)">
<path d="M6.21415 14.8629L1.07129 16.3929L2.51129 10.9286L11.9284 0.971428C12.0349 0.855772 12.162 0.763876 12.3023 0.701137C12.4426 0.638398 12.5933 0.606079 12.7456 0.606079C12.8978 0.606079 13.0485 0.638398 13.1888 0.701137C13.3292 0.763876 13.4563 0.855772 13.5627 0.971428L15.5856 3.13286C15.6927 3.24574 15.7777 3.38004 15.8357 3.52801C15.8938 3.67599 15.9236 3.8347 15.9236 3.995C15.9236 4.1553 15.8938 4.31401 15.8357 4.46199C15.7777 4.60996 15.6927 4.74426 15.5856 4.85714L6.21415 14.8629Z" stroke="white" stroke-width="1.71429" stroke-linecap="round" stroke-linejoin="round"/>
</g>
<defs>
<clipPath id="clip0_161_869">
<rect width="16" height="17" fill="white" transform="translate(0.5)"/>
</clipPath>
</defs>
</svg>
