<svg width="46" height="28" viewBox="0 0 46 28" fill="none" xmlns="http://www.w3.org/2000/svg">
<path d="M43.4701 11.7985C44.015 12.4023 44.3166 13.1867 44.3166 14C44.3166 14.8133 44.015 15.5976 43.4701 16.2014C40.0201 19.9143 32.1673 27.1428 23.0001 27.1428C13.833 27.1428 5.98012 19.9143 2.53012 16.2014C1.98522 15.5976 1.68359 14.8133 1.68359 14C1.68359 13.1867 1.98522 12.4023 2.53012 11.7985C5.98012 8.08569 13.833 0.857117 23.0001 0.857117C32.1673 0.857117 40.0201 8.08569 43.4701 11.7985Z" stroke="black" stroke-width="1.71429" stroke-linecap="round" stroke-linejoin="round"/>
<path d="M23.0001 20.5714C26.6294 20.5714 29.5716 17.6293 29.5716 14C29.5716 10.3707 26.6294 7.42853 23.0001 7.42853C19.3708 7.42853 16.4287 10.3707 16.4287 14C16.4287 17.6293 19.3708 20.5714 23.0001 20.5714Z" stroke="black" stroke-width="1.71429" stroke-linecap="round" stroke-linejoin="round"/>
</svg>
