<svg width="28" height="28" viewBox="0 0 28 28" fill="none" xmlns="http://www.w3.org/2000/svg">
<g clip-path="url(#clip0_305_262)">
<path d="M13.9997 7.35669L4.01361 15.5892C4.01361 15.6008 4.01069 15.6179 4.00485 15.6412C3.99914 15.6643 3.99609 15.6811 3.99609 15.693V24.0292C3.99609 24.3302 4.10614 24.5911 4.32616 24.8107C4.54612 25.0305 4.8066 25.1411 5.10765 25.1411H11.7765V18.4719H16.223V25.1413H22.8917C23.1927 25.1413 23.4536 25.031 23.6732 24.8107C23.8933 24.5913 24.0037 24.3303 24.0037 24.0292V15.693C24.0037 15.6468 23.9973 15.6118 23.9861 15.5892L13.9997 7.35669Z" fill="white"/>
<path d="M27.8069 13.7134L24.0037 10.5526V3.46664C24.0037 3.30465 23.9516 3.17143 23.8471 3.06717C23.7434 2.96303 23.6102 2.91096 23.4479 2.91096H20.1134C19.9512 2.91096 19.8181 2.96303 19.7137 3.06717C19.6096 3.17143 19.5576 3.30471 19.5576 3.46664V6.85325L15.3201 3.31019C14.95 3.00914 14.5099 2.85864 14.0004 2.85864C13.491 2.85864 13.051 3.00914 12.6805 3.31019L0.192988 13.7134C0.0772275 13.8059 0.0137816 13.9304 0.00198048 14.0867C-0.00975977 14.2429 0.0306924 14.3794 0.123459 14.4951L1.20022 15.7803C1.29298 15.8844 1.4144 15.9481 1.56495 15.9714C1.70395 15.9831 1.84295 15.9424 1.98195 15.8499L14.0001 5.82856L26.0183 15.8498C26.1111 15.9306 26.2325 15.9709 26.383 15.9709H26.4352C26.5855 15.948 26.7067 15.8839 26.8 15.78L27.8769 14.495C27.9694 14.379 28.01 14.2428 27.998 14.0865C27.9861 13.9305 27.9224 13.8061 27.8069 13.7134Z" fill="white"/>
</g>
<defs>
<clipPath id="clip0_305_262">
<rect width="28.0001" height="28" fill="white"/>
</clipPath>
</defs>
</svg>
