<svg width="28" height="28" viewBox="0 0 28 28" fill="none" xmlns="http://www.w3.org/2000/svg">
<g clip-path="url(#clip0_305_282)">
<path d="M26.7156 25.4485H1.27248C0.56952 25.4485 0 26.018 0 26.7216C0 27.4239 0.56952 27.9935 1.27248 27.9935H26.715C27.418 27.9935 27.9875 27.4239 27.9875 26.7216C27.9869 26.018 27.4174 25.4485 26.7156 25.4485Z" fill="white"/>
<path d="M2.86233 22.1405C2.15936 22.1405 1.58984 22.71 1.58984 23.4129C1.58984 24.1159 2.15936 24.686 2.86233 24.686H25.1248C25.8278 24.686 26.3973 24.1159 26.3973 23.4129C26.3973 22.71 25.8278 22.1405 25.1248 22.1405H24.8073V10.6905H25.1248C25.4769 10.6905 25.7605 10.4057 25.7605 10.0548C25.7605 9.70395 25.4757 9.41919 25.1248 9.41919H2.86233C2.51085 9.41919 2.22668 9.70395 2.22668 10.0548C2.22668 10.4057 2.51144 10.6905 2.86233 10.6905H3.18045V22.1399L2.86233 22.1405ZM22.2623 10.6905V22.1399H18.4461V10.6905H22.2623ZM15.9011 10.6905V22.1399H12.0849V10.6905H15.9011ZM5.72422 10.6905H9.54048V22.1399H5.72422V10.6905Z" fill="white"/>
<path d="M1.27251 8.2753H26.715C26.7192 8.2753 26.724 8.2753 26.7275 8.2753C27.4311 8.2753 28 7.70578 28 7.00281C28 6.44402 27.6402 5.97041 27.1404 5.79884L14.5168 0.118536C14.185 -0.0303973 13.8055 -0.0303973 13.4731 0.118536L0.750647 5.84292C0.203169 6.08956 -0.0976759 6.6841 0.0286193 7.2703C0.154319 7.8565 0.672606 8.2753 1.27251 8.2753Z" fill="white"/>
</g>
<defs>
<clipPath id="clip0_305_282">
<rect width="28" height="28" fill="white"/>
</clipPath>
</defs>
</svg>
