<svg width="28" height="28" viewBox="0 0 28 28" fill="none" xmlns="http://www.w3.org/2000/svg">
<path d="M22.6891 19.418H21.0801V23.5419H22.6891V19.418Z" fill="white"/>
<path d="M21.8849 18.9254C22.406 18.9254 22.8284 18.5029 22.8284 17.9818C22.8284 17.4608 22.406 17.0383 21.8849 17.0383C21.3638 17.0383 20.9414 17.4608 20.9414 17.9818C20.9414 18.5029 21.3638 18.9254 21.8849 18.9254Z" fill="white"/>
<path d="M21.8374 14.2651C20.0657 14.2651 18.4719 15.0215 17.3469 16.222L17.0336 16.0777L15.5827 14.8546L13.0892 17.3344L10.5895 14.8546L9.13859 16.0777L6.11801 17.4684C5.67133 17.6517 5.2748 17.9691 5.00908 18.4152L0 25.6028L18.5162 25.611C19.4761 26.2281 20.6144 26.5903 21.8374 26.5903C25.2355 26.5903 28 23.8255 28 20.4274C27.9997 17.0297 25.2355 14.2651 21.8374 14.2651ZM21.8374 24.7646C19.4459 24.7646 17.5005 22.8189 17.5005 20.4277C17.5005 18.0368 19.4459 16.0914 21.8374 16.0914C24.2283 16.0914 26.1737 18.0368 26.1737 20.4277C26.1737 22.8189 24.2283 24.7646 21.8374 24.7646Z" fill="white"/>
<path d="M13.0692 15.1533V15.1542C13.0715 15.1542 13.075 15.1536 13.0777 15.1536C13.0788 15.1536 13.0812 15.1542 13.0835 15.1542C13.0835 15.1542 13.0847 15.1542 13.0853 15.1542C13.0865 15.1542 13.0871 15.1542 13.0876 15.1542C13.0894 15.1542 13.0917 15.1536 13.0935 15.1536C13.0964 15.1536 13.0994 15.1542 13.102 15.1542V15.1533C16.6227 15.207 18.7628 12.1254 18.8182 7.04502C18.8537 3.52057 16.6678 1.50538 13.1082 1.41065V1.40918C13.1023 1.40918 13.0985 1.40947 13.0932 1.40947V1.40918C13.0897 1.40918 13.0873 1.40918 13.0853 1.40947C13.0829 1.40918 13.08 1.40918 13.078 1.40918V1.40947C13.0721 1.40947 13.0683 1.40918 13.0636 1.40918V1.41065C9.50336 1.50567 7.31748 3.52086 7.35296 7.04531C7.40781 12.1254 9.54794 15.207 13.0692 15.1533Z" fill="white"/>
</svg>
