<svg width="51" height="51" viewBox="0 0 51 51" fill="none" xmlns="http://www.w3.org/2000/svg">
<g clip-path="url(#clip0_335_1201)">
<path d="M1.7 51H32.3C32.7509 51 33.1833 50.8209 33.5021 50.5021C33.8209 50.1833 34 49.7509 34 49.3V47.6H35.7C36.1509 47.6 36.5833 47.4209 36.9021 47.1021C37.2209 46.7833 37.4 46.3509 37.4 45.9V33.0123C37.6646 32.8198 37.8864 32.5743 38.0511 32.2915L50.5657 10.3802C50.7789 10.0101 50.9169 9.60156 50.9718 9.17797C51.0266 8.75438 50.9972 8.32413 50.8852 7.91195C50.7732 7.49977 50.5808 7.1138 50.3191 6.77623C50.0574 6.43865 49.7316 6.15613 49.3604 5.9449L46.58 4.3639C46.2101 4.15006 45.8015 4.01147 45.3778 3.95611C44.9542 3.90076 44.5237 3.92972 44.1113 4.04135C43.6988 4.15297 43.3125 4.34505 42.9746 4.60653C42.6366 4.86801 42.3537 5.19373 42.1422 5.56495L37.4 13.872V1.7C37.4 1.24913 37.2209 0.81673 36.9021 0.497919C36.5833 0.179107 36.1509 0 35.7 0L5.1 0C4.64913 0 4.21673 0.179107 3.89792 0.497919C3.57911 0.81673 3.4 1.24913 3.4 1.7V3.4H1.7C1.24913 3.4 0.81673 3.57911 0.497919 3.89792C0.179107 4.21673 0 4.64913 0 5.1L0 49.3C0 49.7509 0.179107 50.1833 0.497919 50.5021C0.81673 50.8209 1.24913 51 1.7 51ZM40.4694 11.9264L41.6109 9.928L47.0807 13.0543L45.9391 15.0527L40.4694 11.9264ZM41.4205 14.4279L33.2019 28.974L31.3395 27.9097L39.6262 13.4028L41.4205 14.4279ZM30.6255 35.5079L30.9553 29.6429L35.513 32.2473L30.6255 35.5079ZM36.8135 31.0344L34.68 29.818L42.8978 15.2719L45.0968 16.5291L36.8135 31.0344ZM43.6212 6.40815C43.7216 6.23082 43.8562 6.07521 44.0173 5.95036C44.1783 5.8255 44.3626 5.73387 44.5593 5.68081C44.7561 5.62775 44.9614 5.6143 45.1634 5.64125C45.3654 5.6682 45.56 5.73501 45.736 5.8378L48.5197 7.4222C48.6963 7.52242 48.8514 7.65659 48.9759 7.81698C49.1005 7.97738 49.192 8.16083 49.2454 8.35678C49.2987 8.55272 49.3127 8.75728 49.2867 8.95867C49.2606 9.16006 49.1949 9.3543 49.0935 9.5302V9.5353L47.9264 11.5753L42.4541 8.45155L43.6212 6.40815ZM5.1 1.7H35.7V16.8478L29.6225 27.489C29.4406 27.8173 29.334 28.182 29.3106 28.5566L28.9085 35.7H9.35C9.12457 35.7 8.90837 35.7896 8.74896 35.949C8.58955 36.1084 8.5 36.3246 8.5 36.55C8.5 36.7754 8.58955 36.9916 8.74896 37.151C8.90837 37.3104 9.12457 37.4 9.35 37.4H30.4088C30.7019 37.398 30.9879 37.3093 31.2307 37.145L35.7 34.17V45.9H11.05V41.65C11.05 41.1991 10.8709 40.7667 10.5521 40.4479C10.2333 40.1291 9.80087 39.95 9.35 39.95H5.1V1.7ZM9.35 44.6981L6.3019 41.65H9.35V44.6981ZM1.7 5.1H3.4V40.0945C3.39881 40.431 3.46455 40.7643 3.5934 41.0751C3.72226 41.386 3.91165 41.6681 4.15055 41.905L9.09755 46.852C9.3344 47.0901 9.61617 47.2789 9.92653 47.4073C10.2369 47.5357 10.5696 47.6012 10.9055 47.6H32.3V49.3H1.7V5.1Z" fill="#4E243D"/>
<path d="M9.34977 17C9.34977 16.7746 9.26022 16.5584 9.10081 16.399C8.9414 16.2396 8.7252 16.15 8.49977 16.15C8.27433 16.15 8.05813 16.2396 7.89873 16.399C7.73932 16.5584 7.64977 16.7746 7.64977 17C7.651 17.9794 7.98985 18.9284 8.60918 19.6871C9.22851 20.4457 10.0905 20.9677 11.0498 21.165V22.1C11.0498 22.3254 11.1393 22.5416 11.2987 22.701C11.4581 22.8604 11.6743 22.95 11.8998 22.95C12.1252 22.95 12.3414 22.8604 12.5008 22.701C12.6602 22.5416 12.7498 22.3254 12.7498 22.1V21.165C13.7105 20.9699 14.5743 20.4487 15.1947 19.6896C15.8151 18.9306 16.154 17.9804 16.154 17C16.154 16.0196 15.8151 15.0694 15.1947 14.3104C14.5743 13.5513 13.7105 13.0301 12.7498 12.835V7.8064C13.2452 7.98157 13.6745 8.30555 13.9788 8.73401C14.2831 9.16247 14.4476 9.67448 14.4498 10.2C14.4498 10.4254 14.5393 10.6416 14.6987 10.801C14.8581 10.9604 15.0743 11.05 15.2998 11.05C15.5252 11.05 15.7414 10.9604 15.9008 10.801C16.0602 10.6416 16.1498 10.4254 16.1498 10.2C16.1485 9.22063 15.8097 8.27162 15.1904 7.51294C14.571 6.75425 13.7091 6.23228 12.7498 6.035V5.1C12.7498 4.87457 12.6602 4.65837 12.5008 4.49896C12.3414 4.33955 12.1252 4.25 11.8998 4.25C11.6743 4.25 11.4581 4.33955 11.2987 4.49896C11.1393 4.65837 11.0498 4.87457 11.0498 5.1V6.035C10.089 6.23009 9.22526 6.75132 8.60485 7.51038C7.98443 8.26944 7.64551 9.21965 7.64551 10.2C7.64551 11.1804 7.98443 12.1306 8.60485 12.8896C9.22526 13.6487 10.089 14.1699 11.0498 14.365V19.3945C10.5542 19.2192 10.1248 18.8951 9.8205 18.4665C9.51618 18.0379 9.35177 17.5257 9.34977 17ZM14.4498 17C14.4476 17.5255 14.2831 18.0375 13.9788 18.466C13.6745 18.8945 13.2452 19.2184 12.7498 19.3936V14.6064C13.2452 14.7816 13.6745 15.1055 13.9788 15.534C14.2831 15.9625 14.4476 16.4745 14.4498 17ZM9.34977 10.2C9.35195 9.67448 9.51644 9.16247 9.82074 8.73401C10.125 8.30555 10.5543 7.98157 11.0498 7.8064V12.5936C10.5543 12.4184 10.125 12.0945 9.82074 11.666C9.51644 11.2375 9.35195 10.7255 9.34977 10.2Z" fill="#4E243D"/>
<path d="M19.5502 7.64995H31.4502C31.6756 7.64995 31.8918 7.5604 32.0512 7.40099C32.2106 7.24159 32.3002 7.02539 32.3002 6.79995C32.3002 6.57452 32.2106 6.35832 32.0512 6.19891C31.8918 6.0395 31.6756 5.94995 31.4502 5.94995H19.5502C19.3248 5.94995 19.1086 6.0395 18.9492 6.19891C18.7897 6.35832 18.7002 6.57452 18.7002 6.79995C18.7002 7.02539 18.7897 7.24159 18.9492 7.40099C19.1086 7.5604 19.3248 7.64995 19.5502 7.64995Z" fill="#4E243D"/>
<path d="M19.5502 11.9H31.4502C31.6756 11.9 31.8918 11.8104 32.0512 11.651C32.2106 11.4916 32.3002 11.2754 32.3002 11.05C32.3002 10.8245 32.2106 10.6083 32.0512 10.4489C31.8918 10.2895 31.6756 10.2 31.4502 10.2H19.5502C19.3248 10.2 19.1086 10.2895 18.9492 10.4489C18.7897 10.6083 18.7002 10.8245 18.7002 11.05C18.7002 11.2754 18.7897 11.4916 18.9492 11.651C19.1086 11.8104 19.3248 11.9 19.5502 11.9Z" fill="#4E243D"/>
<path d="M19.5502 16.15H31.4502C31.6756 16.15 31.8918 16.0604 32.0512 15.901C32.2106 15.7416 32.3002 15.5254 32.3002 15.3C32.3002 15.0745 32.2106 14.8583 32.0512 14.6989C31.8918 14.5395 31.6756 14.45 31.4502 14.45H19.5502C19.3248 14.45 19.1086 14.5395 18.9492 14.6989C18.7897 14.8583 18.7002 15.0745 18.7002 15.3C18.7002 15.5254 18.7897 15.7416 18.9492 15.901C19.1086 16.0604 19.3248 16.15 19.5502 16.15Z" fill="#4E243D"/>
<path d="M19.5502 20.4H31.4502C31.6756 20.4 31.8918 20.3104 32.0512 20.151C32.2106 19.9916 32.3002 19.7754 32.3002 19.55C32.3002 19.3245 32.2106 19.1083 32.0512 18.9489C31.8918 18.7895 31.6756 18.7 31.4502 18.7H19.5502C19.3248 18.7 19.1086 18.7895 18.9492 18.9489C18.7897 19.1083 18.7002 19.3245 18.7002 19.55C18.7002 19.7754 18.7897 19.9916 18.9492 20.151C19.1086 20.3104 19.3248 20.4 19.5502 20.4Z" fill="#4E243D"/>
<path d="M19.5502 24.65H28.0502C28.2756 24.65 28.4918 24.5604 28.6512 24.401C28.8106 24.2416 28.9002 24.0254 28.9002 23.8C28.9002 23.5745 28.8106 23.3583 28.6512 23.1989C28.4918 23.0395 28.2756 22.95 28.0502 22.95H19.5502C19.3248 22.95 19.1086 23.0395 18.9492 23.1989C18.7897 23.3583 18.7002 23.5745 18.7002 23.8C18.7002 24.0254 18.7897 24.2416 18.9492 24.401C19.1086 24.5604 19.3248 24.65 19.5502 24.65Z" fill="#4E243D"/>
<path d="M26.35 27.2H9.35C9.12457 27.2 8.90837 27.2895 8.74896 27.4489C8.58955 27.6083 8.5 27.8245 8.5 28.05C8.5 28.2754 8.58955 28.4916 8.74896 28.651C8.90837 28.8104 9.12457 28.9 9.35 28.9H26.35C26.5754 28.9 26.7916 28.8104 26.951 28.651C27.1104 28.4916 27.2 28.2754 27.2 28.05C27.2 27.8245 27.1104 27.6083 26.951 27.4489C26.7916 27.2895 26.5754 27.2 26.35 27.2Z" fill="#4E243D"/>
<path d="M26.35 31.45H9.35C9.12457 31.45 8.90837 31.5395 8.74896 31.6989C8.58955 31.8583 8.5 32.0745 8.5 32.3C8.5 32.5254 8.58955 32.7416 8.74896 32.901C8.90837 33.0604 9.12457 33.15 9.35 33.15H26.35C26.5754 33.15 26.7916 33.0604 26.951 32.901C27.1104 32.7416 27.2 32.5254 27.2 32.3C27.2 32.0745 27.1104 31.8583 26.951 31.6989C26.7916 31.5395 26.5754 31.45 26.35 31.45Z" fill="#4E243D"/>
</g>
<defs>
<clipPath id="clip0_335_1201">
<rect width="51" height="51" fill="white"/>
</clipPath>
</defs>
</svg>
