<svg width="29" height="29" viewBox="0 0 29 29" fill="none" xmlns="http://www.w3.org/2000/svg">
<path d="M7.73751 19.0739C11.2045 19.0739 14.0151 16.2633 14.0151 12.7964C14.0151 9.32935 11.2045 6.5188 7.73751 6.5188C4.27052 6.5188 1.45996 9.32935 1.45996 12.7964C1.45996 16.2633 4.27052 19.0739 7.73751 19.0739Z" fill="white"/>
<path d="M21.6062 10.1685C24.3476 10.1685 26.5699 7.9462 26.5699 5.20486C26.5699 2.46351 24.3476 0.241211 21.6062 0.241211C18.8649 0.241211 16.6426 2.46351 16.6426 5.20486C16.6426 7.9462 18.8649 10.1685 21.6062 10.1685Z" fill="white"/>
<path d="M21.6062 25.3514C24.3476 25.3514 26.5699 23.1291 26.5699 20.3877C26.5699 17.6464 24.3476 15.4241 21.6062 15.4241C18.8649 15.4241 16.6426 17.6464 16.6426 20.3877C16.6426 23.1291 18.8649 25.3514 21.6062 25.3514Z" fill="white"/>
<path d="M17.9042 19.8389C17.7106 19.8383 17.5201 19.7902 17.3494 19.6987L12.4804 17.0709C12.2516 16.9474 12.0706 16.7512 11.9659 16.5132C11.8613 16.2752 11.8391 16.0091 11.9028 15.7571C11.9665 15.505 12.1124 15.2814 12.3175 15.1217C12.5226 14.962 12.7752 14.8752 13.0351 14.8752C13.2283 14.8756 13.4184 14.9233 13.5887 15.0142L18.4589 17.642C18.6883 17.7652 18.87 17.9615 18.975 18.1998C19.0801 18.438 19.1025 18.7045 19.0388 18.9569C18.975 19.2094 18.8287 19.4333 18.6232 19.5931C18.4176 19.7529 18.1645 19.8394 17.9042 19.8389Z" fill="white"/>
<path d="M13.0351 10.7173C12.7752 10.7173 12.5226 10.6306 12.3175 10.4709C12.1124 10.3111 11.9665 10.0875 11.9028 9.83549C11.8391 9.58344 11.8613 9.31735 11.9659 9.07937C12.0706 8.84138 12.2516 8.6451 12.4804 8.52163L17.3494 5.89381C17.5201 5.80237 17.7106 5.75424 17.9042 5.75366C18.1645 5.75317 18.4176 5.8397 18.6232 5.99949C18.8287 6.15929 18.975 6.38319 19.0388 6.63563C19.1025 6.88807 19.0801 7.15457 18.975 7.3928C18.87 7.63104 18.6883 7.82733 18.4589 7.95052L13.5887 10.5783C13.4184 10.6693 13.2283 10.717 13.0351 10.7173Z" fill="white"/>
</svg>
