<svg width="43" height="43" viewBox="0 0 43 43" fill="none" xmlns="http://www.w3.org/2000/svg">
<path d="M33.6019 28.4602H29.1713C28.4292 28.4602 27.8275 27.8587 27.8275 27.1165C27.8275 26.3743 28.4292 25.7727 29.1713 25.7727H33.6019C36.5115 25.7727 38.8786 23.4054 38.8786 20.4955C38.8786 17.5858 36.5114 15.2184 33.6019 15.2184C32.9176 15.2184 32.252 15.3475 31.6237 15.602C31.1487 15.7944 30.6056 15.6997 30.2234 15.3583C29.8414 15.0167 29.6869 14.4875 29.8253 13.9939C30.0372 13.2378 30.1447 12.4523 30.1447 11.6591C30.1447 6.89246 26.2668 3.01456 21.5001 3.01456C16.7334 3.01456 12.8556 6.89246 12.8556 11.6591C12.8556 12.4521 12.963 13.2378 13.1749 13.9941C13.3131 14.4876 13.1587 15.0168 12.7765 15.3583C12.3945 15.7 11.8515 15.7944 11.3763 15.602C10.748 15.3475 10.0826 15.2184 9.39825 15.2184C6.48845 15.2184 4.12109 17.5858 4.12109 20.4955C4.12109 23.4053 6.48845 25.7727 9.39825 25.7727H13.8288C14.5709 25.7727 15.1725 26.3743 15.1725 27.1165C15.1725 27.8587 14.5709 28.4602 13.8288 28.4602H9.39825C5.00654 28.4602 1.43359 24.8873 1.43359 20.4955C1.43359 16.1038 5.00654 12.5309 9.39825 12.5309C9.66902 12.5309 9.93785 12.5444 10.2044 12.5711C10.1801 12.2685 10.168 11.9641 10.168 11.6592C10.168 5.41072 15.2515 0.327148 21.5 0.327148C27.7485 0.327148 32.8321 5.41064 32.8321 11.6592C32.8321 11.9642 32.8199 12.2684 32.7956 12.5711C33.0622 12.5444 33.331 12.5309 33.6018 12.5309C37.9933 12.5309 41.566 16.1038 41.566 20.4955C41.5661 24.8873 37.9933 28.4602 33.6019 28.4602Z" fill="#A5A5A5"/>
<path d="M15.6403 22.1363C15.3162 22.1363 14.9911 22.0197 14.7331 21.7836C14.1858 21.2824 14.1484 20.4324 14.6496 19.8851L20.5092 13.4861C21.0105 12.9388 21.8605 12.9013 22.4077 13.4026C22.955 13.9038 22.9924 14.7537 22.4913 15.3011L16.6316 21.7001C16.3666 21.9895 16.0041 22.1363 15.6403 22.1363Z" fill="#A5A5A5"/>
<path d="M27.3601 22.1362C26.9962 22.1362 26.6338 21.9894 26.3686 21.7L20.5089 15.3009C20.0078 14.7535 20.0452 13.9036 20.5925 13.4025C21.1399 12.9013 21.9899 12.9388 22.4911 13.486L28.3507 19.885C28.8519 20.4324 28.8145 21.2823 28.2672 21.7835C28.0093 22.0195 27.6842 22.1362 27.3601 22.1362Z" fill="#A5A5A5"/>
<path d="M21.5 32.3825C20.7579 32.3825 20.1562 31.7809 20.1562 31.0387V14.8325C20.1562 14.0903 20.7579 13.4888 21.5 13.4888C22.2421 13.4888 22.8438 14.0903 22.8438 14.8325V31.0387C22.8438 31.7809 22.2421 32.3825 21.5 32.3825Z" fill="#A5A5A5"/>
<path d="M21.5 38.6731C20.7579 38.6731 20.1562 38.0716 20.1562 37.3294V35.3464C20.1562 34.6043 20.7579 34.0027 21.5 34.0027C22.2421 34.0027 22.8438 34.6043 22.8438 35.3464V37.3294C22.8438 38.0716 22.2421 38.6731 21.5 38.6731Z" fill="#A5A5A5"/>
</svg>
