<svg width="51" height="50" viewBox="0 0 51 50" fill="none" xmlns="http://www.w3.org/2000/svg">
<g clip-path="url(#clip0_161_154)">
<path d="M44.9584 6.01044H4.887C2.8751 6.01044 1.24414 7.60942 1.24414 9.58187V31.0104C1.24414 32.9829 2.8751 34.5819 4.887 34.5819H44.9584C46.9703 34.5819 48.6013 32.9829 48.6013 31.0104V9.58187C48.6013 7.60942 46.9703 6.01044 44.9584 6.01044Z" stroke="white" stroke-width="1.71429" stroke-linecap="round" stroke-linejoin="round"/>
<path d="M24.9223 25.6533C27.9401 25.6533 30.3866 23.2548 30.3866 20.2962C30.3866 17.3375 27.9401 14.939 24.9223 14.939C21.9045 14.939 19.458 17.3375 19.458 20.2962C19.458 23.2548 21.9045 25.6533 24.9223 25.6533Z" stroke="white" stroke-width="1.71429" stroke-linecap="round" stroke-linejoin="round"/>
<path d="M4.88672 43.5104H44.9581" stroke="white" stroke-width="1.71429" stroke-linecap="round" stroke-linejoin="round"/>
</g>
<defs>
<clipPath id="clip0_161_154">
<rect width="51" height="50" fill="white"/>
</clipPath>
</defs>
</svg>
