<svg width="52" height="52" viewBox="0 0 52 52" fill="none" xmlns="http://www.w3.org/2000/svg">
<g clip-path="url(#clip0_161_1096)">
<path d="M48.9914 11.3286C49.7195 10.5916 50.1278 9.5974 50.1278 8.56143C50.1278 7.52546 49.7195 6.53123 48.9914 5.79429L46.2056 3.00857C45.4779 2.33507 44.5229 1.96094 43.5314 1.96094C42.5398 1.96094 41.5848 2.33507 40.8571 3.00857L25.9999 17.68L11.3285 3.00857C10.5916 2.28046 9.59733 1.87215 8.56135 1.87215C7.52538 1.87215 6.53116 2.28046 5.79421 3.00857L3.0085 5.79429C2.28038 6.53123 1.87207 7.52546 1.87207 8.56143C1.87207 9.5974 2.28038 10.5916 3.0085 11.3286L17.8656 26.1857L3.0085 40.8571C2.28038 41.5941 1.87207 42.5883 1.87207 43.6243C1.87207 44.6603 2.28038 45.6545 3.0085 46.3914L5.79421 49.1771C6.53116 49.9053 7.52538 50.3136 8.56135 50.3136C9.59733 50.3136 10.5916 49.9053 11.3285 49.1771L25.9999 34.32L40.8571 48.9914C41.594 49.7195 42.5882 50.1279 43.6242 50.1279C44.6602 50.1279 45.6544 49.7195 46.3914 48.9914L49.1771 46.2057C49.9052 45.4688 50.3135 44.4745 50.3135 43.4386C50.3135 42.4026 49.9052 41.4084 49.1771 40.6714L34.3199 26L48.9914 11.3286Z" stroke="#4E243D" stroke-width="3.71" stroke-linecap="round" stroke-linejoin="round"/>
</g>
<defs>
<clipPath id="clip0_161_1096">
<rect width="52" height="52" fill="white"/>
</clipPath>
</defs>
</svg>
