<svg width="450" height="144" viewBox="0 0 450 144" fill="none" xmlns="http://www.w3.org/2000/svg">
<mask id="mask0_161_1075" style="mask-type:alpha" maskUnits="userSpaceOnUse" x="0" y="0" width="450" height="144">
<path d="M0 5C0 2.23857 2.23858 0 5 0H445C447.761 0 450 2.23858 450 5V139C450 141.761 447.761 144 445 144H5.00001C2.23859 144 0 141.761 0 139V5Z" fill="#F50066"/>
</mask>
<g mask="url(#mask0_161_1075)">
<path d="M0 5C0 2.23857 2.23858 0 5 0H445C447.761 0 450 2.23858 450 5V139C450 141.761 447.761 144 445 144H5.00001C2.23859 144 0 141.761 0 139V5Z" fill="#F0F0F0"/>
<g filter="url(#filter0_f_161_1075)">
<circle cx="346" cy="300" r="111" fill="#F4ABD0"/>
</g>
<g filter="url(#filter1_f_161_1075)">
<circle cx="5" r="59" fill="#F4ABD0"/>
</g>
</g>
<defs>
<filter id="filter0_f_161_1075" x="44" y="-2" width="604" height="604" filterUnits="userSpaceOnUse" color-interpolation-filters="sRGB">
<feFlood flood-opacity="0" result="BackgroundImageFix"/>
<feBlend mode="normal" in="SourceGraphic" in2="BackgroundImageFix" result="shape"/>
<feGaussianBlur stdDeviation="95.5" result="effect1_foregroundBlur_161_1075"/>
</filter>
<filter id="filter1_f_161_1075" x="-174" y="-179" width="358" height="358" filterUnits="userSpaceOnUse" color-interpolation-filters="sRGB">
<feFlood flood-opacity="0" result="BackgroundImageFix"/>
<feBlend mode="normal" in="SourceGraphic" in2="BackgroundImageFix" result="shape"/>
<feGaussianBlur stdDeviation="60" result="effect1_foregroundBlur_161_1075"/>
</filter>
</defs>
</svg>
