<svg width="57" height="57" viewBox="0 0 57 57" fill="none" xmlns="http://www.w3.org/2000/svg">
<path d="M44.7852 37.6428L52.928 35.6071L54.9637 43.75" stroke="#4E243D" stroke-width="3.71" stroke-linecap="round" stroke-linejoin="round"/>
<path d="M52.9276 35.6071C51.1192 40.7315 47.8344 45.2058 43.4871 48.4663C39.1399 51.7267 33.9247 53.6273 28.499 53.9286C23.4835 53.9294 18.5892 52.3865 14.481 49.5093C10.3728 46.6321 7.24977 42.5601 5.53613 37.8464" stroke="#4E243D" stroke-width="3.71" stroke-linecap="round" stroke-linejoin="round"/>
<path d="M12.2137 21.3571L4.07087 23.3928L2.03516 15.25" stroke="#4E243D" stroke-width="3.71" stroke-linecap="round" stroke-linejoin="round"/>
<path d="M4.07129 23.3928C7.49129 14.0286 17.9956 5.07141 28.4999 5.07141C33.5398 5.08558 38.4521 6.65828 42.5631 9.57391C46.6741 12.4895 49.7827 16.6054 51.4627 21.3571" stroke="#4E243D" stroke-width="3.71" stroke-linecap="round" stroke-linejoin="round"/>
</svg>
