<svg width="50" height="51" viewBox="0 0 50 51" fill="none" xmlns="http://www.w3.org/2000/svg">
<g clip-path="url(#clip0_262_3117)">
<path d="M6.14583 50.5H34.8264C36.4564 50.5 38.0196 49.8415 39.1722 48.6694C40.3247 47.4973 40.9722 45.9076 40.9722 44.25V28.5833C40.9722 28.0308 40.7564 27.5009 40.3722 27.1102C39.988 26.7195 39.4669 26.5 38.9236 26.5C38.3803 26.5 37.8592 26.7195 37.475 27.1102C37.0908 27.5009 36.875 28.0308 36.875 28.5833V44.25C36.875 44.8025 36.6592 45.3324 36.275 45.7231C35.8908 46.1138 35.3697 46.3333 34.8264 46.3333H6.14583C5.60251 46.3333 5.08144 46.1138 4.69725 45.7231C4.31306 45.3324 4.09722 44.8025 4.09722 44.25V13C4.09722 12.4475 4.31306 11.9176 4.69725 11.5269C5.08144 11.1362 5.60251 10.9167 6.14583 10.9167H23.6C24.1433 10.9167 24.6644 10.6972 25.0486 10.3065C25.4328 9.91577 25.6486 9.38587 25.6486 8.83333C25.6486 8.2808 25.4328 7.75089 25.0486 7.36019C24.6644 6.96949 24.1433 6.75 23.6 6.75H6.14583C4.51586 6.75 2.95264 7.40848 1.80007 8.58058C0.647506 9.75269 0 11.3424 0 13L0 44.25C0 45.9076 0.647506 47.4973 1.80007 48.6694C2.95264 49.8415 4.51586 50.5 6.14583 50.5Z" fill="white"/>
<path d="M43.1766 0.522936C42.4115 0.446041 41.6391 0.54069 40.9139 0.800213C40.1886 1.05974 39.5282 1.47782 38.979 2.02502L20.691 20.6146C20.3649 20.9445 20.1584 21.3771 20.1051 21.8417L19.3246 28.5271C19.2905 28.8194 19.3176 29.1157 19.4042 29.3965C19.4909 29.6774 19.635 29.9364 19.8272 30.1564C20.0194 30.3765 20.2553 30.5526 20.5193 30.6733C20.7833 30.7939 21.0695 30.8563 21.3589 30.8563C21.4397 30.8565 21.5204 30.8517 21.6006 30.8417L28.1746 30.0479C28.6315 29.9938 29.0568 29.7837 29.3812 29.4521L47.661 10.8646C48.198 10.3049 48.6083 9.63277 48.8635 8.89512C49.1186 8.15746 49.2123 7.37207 49.1381 6.59377C48.9975 5.03521 48.319 3.57757 47.2226 2.47919C46.1438 1.36118 44.7103 0.668091 43.1766 0.522936ZM44.7725 7.91669L26.9946 25.9959L23.7066 26.3917L24.0979 23.0584L41.8778 4.97919C42.5436 4.29377 43.7686 4.85835 44.3238 5.41669C44.879 5.97502 45.4506 7.2271 44.7725 7.91669Z" fill="white"/>
</g>
<defs>
<clipPath id="clip0_262_3117">
<rect width="49.1667" height="50" fill="white" transform="translate(0 0.5)"/>
</clipPath>
</defs>
</svg>
