<svg width="53" height="53" viewBox="0 0 53 53" fill="none" xmlns="http://www.w3.org/2000/svg">
<path d="M13.2025 2.19052C12.6288 2.20762 12.0843 2.44747 11.6843 2.85914L2.85097 11.6926C2.43963 12.1064 2.20874 12.6662 2.20874 13.2497C2.20874 13.8331 2.43963 14.3929 2.85097 14.8067L11.6843 23.6443C12.0998 24.0583 12.6626 24.2905 13.2491 24.29C13.8357 24.2895 14.398 24.0562 14.8128 23.6415C15.2275 23.2267 15.4608 22.6643 15.4613 22.0778C15.4618 21.4913 15.2296 20.9283 14.8156 20.5128L9.76495 15.4624H44.1753V22.2253C44.1478 22.5307 44.1843 22.8387 44.2824 23.1293C44.3805 23.4198 44.538 23.6867 44.7449 23.913C44.9519 24.1394 45.2037 24.3202 45.4843 24.4438C45.7649 24.5675 46.0683 24.6316 46.375 24.6316C46.6817 24.6316 46.985 24.5675 47.2656 24.4438C47.5463 24.3202 47.7981 24.1394 48.005 23.913C48.2119 23.6867 48.3695 23.4198 48.4675 23.1293C48.5656 22.8387 48.6021 22.5307 48.5747 22.2253V15.4624C48.5747 13.0538 46.5839 11.0413 44.1753 11.0413H9.74338L14.8156 5.97327C15.1322 5.66205 15.3477 5.26281 15.4339 4.82731C15.5201 4.39182 15.4731 3.94046 15.2989 3.53209C15.1248 3.12373 14.8316 2.7772 14.4576 2.53795C14.0837 2.29869 13.6463 2.17748 13.2025 2.19052ZM39.7241 28.682C39.2846 28.683 38.8554 28.815 38.4914 29.0613C38.1274 29.3075 37.8451 29.6568 37.6807 30.0644C37.5163 30.4719 37.4772 30.9192 37.5684 31.3491C37.6597 31.779 37.8771 32.1719 38.1929 32.4775L43.2609 37.5499H8.8333V30.9808C8.83675 30.6865 8.78131 30.3945 8.67025 30.1219C8.5592 29.8493 8.39476 29.6016 8.1866 29.3934C7.97844 29.1853 7.73077 29.0208 7.45815 28.9097C7.18552 28.7987 6.89345 28.7433 6.59909 28.7467C6.0134 28.7536 5.45443 28.9928 5.04514 29.4118C4.63586 29.8308 4.40978 30.3951 4.41664 30.9808V37.5499C4.41664 39.9585 6.42467 41.9493 8.8333 41.9493H43.2609L38.1929 47.0214C37.9732 47.2225 37.7964 47.466 37.6733 47.7372C37.5501 48.0083 37.483 48.3018 37.4761 48.5996C37.4693 48.8974 37.5227 49.1934 37.6332 49.47C37.7437 49.7466 37.909 49.9981 38.1192 50.2092C38.3294 50.4202 38.5801 50.5865 38.8562 50.6982C39.1323 50.8099 39.4282 50.8643 39.726 50.8587C40.0238 50.853 40.3174 50.7874 40.5891 50.6653C40.8608 50.5433 41.105 50.3674 41.307 50.1485L50.1404 41.3151C50.3466 41.1098 50.5103 40.866 50.622 40.5973C50.7337 40.3286 50.7912 40.0406 50.7912 39.7496C50.7912 39.4586 50.7337 39.1706 50.622 38.9019C50.5103 38.6332 50.3466 38.3891 50.1404 38.1839L41.307 29.3506C41.1012 29.1391 40.8551 28.9708 40.5832 28.856C40.3114 28.7412 40.0192 28.682 39.7241 28.682Z" fill="white"/>
</svg>
