<svg width="46" height="47" viewBox="0 0 46 47" fill="none" xmlns="http://www.w3.org/2000/svg">
<g clip-path="url(#clip0_262_3106)">
<path d="M26.826 23.5005L45.2065 5.12C46.2645 4.06203 46.2645 2.352 45.2065 1.29403C44.1486 0.236057 42.4385 0.236057 41.3805 1.29403L23 19.6745L4.61945 1.29403C3.56148 0.236057 1.85145 0.236057 0.793477 1.29403C-0.264492 2.352 -0.264492 4.06203 0.793477 5.12L19.174 23.5005L0.793477 41.881C-0.264492 42.939 -0.264492 44.649 0.793477 45.707C1.32111 46.2346 2.01379 46.4997 2.70646 46.4997C3.39914 46.4997 4.09181 46.2345 4.61945 45.707L23 27.3265L41.3805 45.707C41.9081 46.2346 42.6008 46.4997 43.2934 46.4997C43.9861 46.4997 44.6788 46.2345 45.2064 45.707C46.2644 44.649 46.2644 42.939 45.2064 41.881L26.826 23.5005Z" fill="white"/>
</g>
<defs>
<clipPath id="clip0_262_3106">
<rect width="46" height="46" fill="white" transform="translate(0 0.5)"/>
</clipPath>
</defs>
</svg>
